<?xml version="1.0" encoding="UTF-8"?><svg id="Capa_1" xmlns="http://www.w3.org/2000/svg" xmlns:xlink="http://www.w3.org/1999/xlink" viewBox="0 0 1080 1080"><defs><style>.cls-1{fill:#fff;}.cls-2{fill:url(#Degradado_sin_nombre_43);}.cls-3{fill:#4f00f6;}.cls-4{fill:#3c00b9;}.cls-5{fill:#6500f9;}</style><linearGradient id="Degradado_sin_nombre_43" x1="266.17" y1="266.31" x2="1025.38" y2="266.31" gradientUnits="userSpaceOnUse"><stop offset="0" stop-color="#4300d0"/><stop offset=".9" stop-color="#a400e3"/></linearGradient></defs><path class="cls-4" d="m959.21,858.44l-353.04,203.83c-40.95,23.64-91.4,23.64-132.34,0l-353.04-203.83c-40.95-23.64-66.17-67.33-66.17-114.61v-407.66c0-47.28,25.22-90.97,66.17-114.61L473.83,17.73c40.95-23.64,91.4-23.64,132.34,0l353.04,203.83c40.95,23.64,66.17,67.33,66.17,114.61v407.66c0,47.28-25.22,90.97-66.17,114.61Z"/><path class="cls-5" d="m540.4,787.74c0-222.72-180.55-403.27-403.27-403.27-28.3,0-55.88,3-82.52,8.56v350.8c0,47.28,25.22,90.97,66.17,114.61l325.63,188c58.64-70.03,93.99-160.22,93.99-258.71Z"/><path class="cls-2" d="m959.21,221.56L606.17,17.73c-40.95-23.64-91.4-23.64-132.34,0l-207.66,119.89c85.8,230.66,307.94,395,568.49,395,66.64,0,130.75-10.78,190.72-30.64v-165.81c0-47.28-25.22-90.97-66.17-114.61Z"/><path class="cls-3" d="m901.61,601.49c-120.43,0-218.07,97.63-218.07,218.07,0,62.48,26.32,118.78,68.42,158.54l207.24-119.65c40.95-23.64,66.17-67.33,66.17-114.61v-103.78c-35.17-24.29-77.8-38.56-123.77-38.56Z"/><path class="cls-1" d="m880.93,483.94v-151.46l-256.53-148.11-84.4,48.73-84.4-48.73-256.53,148.11v415.05l256.53,148.11,84.4-48.73,84.4,48.73,256.53-148.11v-151.47h-123.87v81.38l-217.05,125.32-217.05-125.32v-274.88l217.05-125.32,217.05,125.32v81.38h123.87Zm-85.64,215.58v-65.23h47.4v91.16l-218.29,126.03-46.16-26.65,217.05-125.32Zm-510.58-319.03v319.03l217.05,125.32-46.16,26.65-218.29-126.03v-370.9l218.29-126.03,46.16,26.65-217.05,125.32Zm293.53-125.32l46.16-26.65,218.29,126.03v91.16h-47.4v-65.22l-217.05-125.32Z"/></svg>